<?xml version="1.0" encoding="UTF-8" standalone="no"?>
<!DOCTYPE svg PUBLIC "-//W3C//DTD SVG 1.1//EN" "http://www.w3.org/Graphics/SVG/1.1/DTD/svg11.dtd">
<svg width="100%" height="100%" viewBox="0 0 841 841" version="1.1" xmlns="http://www.w3.org/2000/svg" xmlns:xlink="http://www.w3.org/1999/xlink" xml:space="preserve" xmlns:serif="http://www.serif.com/" style="fill-rule:evenodd;clip-rule:evenodd;stroke-linejoin:round;stroke-miterlimit:2;">
    <g transform="matrix(1,0,0,1,-109,-270)">
        <g>
            <circle cx="529.457" cy="690.233" r="419.845"/>
            <g id="Detective.svg" transform="matrix(1,0,0,1,535.457,683.233)">
                <g transform="matrix(1,0,0,1,-256,-256)">
                    <g>
                        <g>
                            <path d="M123.725,311.337L44.389,311.337C38.619,311.337 33.94,316.015 33.94,321.786C33.94,327.557 38.619,332.235 44.389,332.235L123.725,332.235C129.496,332.235 134.174,327.557 134.174,321.786C134.174,316.015 129.495,311.337 123.725,311.337Z" style="fill:white;fill-rule:nonzero;"/>
                        </g>
                    </g>
                    <g>
                        <g>
                            <path d="M108.878,349.974L108.72,349.974C102.95,349.974 98.271,354.652 98.271,360.423C98.271,366.194 102.95,370.872 108.72,370.872L108.878,370.872C114.649,370.872 119.327,366.194 119.327,360.423C119.327,354.652 114.648,349.974 108.878,349.974Z" style="fill:white;fill-rule:nonzero;"/>
                        </g>
                    </g>
                    <g>
                        <g>
                            <path d="M74.587,349.975L44.095,349.975C38.325,349.975 33.646,354.653 33.646,360.424C33.646,366.195 38.325,370.873 44.095,370.873L74.587,370.873C80.357,370.873 85.036,366.195 85.036,360.424C85.036,354.653 80.357,349.975 74.587,349.975Z" style="fill:white;fill-rule:nonzero;"/>
                        </g>
                    </g>
                    <g>
                        <g>
                            <path d="M296.881,395.226L296.724,395.226C290.954,395.226 286.275,399.904 286.275,405.675C286.275,411.446 290.954,416.124 296.724,416.124L296.881,416.124C302.651,416.124 307.33,411.446 307.33,405.675C307.33,399.904 302.651,395.226 296.881,395.226Z" style="fill:white;fill-rule:nonzero;"/>
                        </g>
                    </g>
                    <g>
                        <g>
                            <path d="M296.881,436.68L296.724,436.68C290.954,436.68 286.275,441.358 286.275,447.129C286.275,452.9 290.954,457.578 296.724,457.578L296.881,457.578C302.651,457.578 307.33,452.9 307.33,447.129C307.33,441.358 302.651,436.68 296.881,436.68Z" style="fill:white;fill-rule:nonzero;"/>
                        </g>
                    </g>
                    <g>
                        <g>
                            <path d="M10.586,481.611L10.449,481.611C4.679,481.611 0,486.289 0,492.06C0,497.831 4.679,502.509 10.449,502.509L10.586,502.509C16.356,502.509 21.035,497.831 21.035,492.06C21.035,486.289 16.356,481.611 10.586,481.611Z" style="fill:white;fill-rule:nonzero;"/>
                        </g>
                    </g>
                    <g>
                        <g>
                            <path d="M501.551,481.611L501.414,481.611C495.644,481.611 490.965,486.289 490.965,492.06C490.965,497.831 495.644,502.509 501.414,502.509L501.551,502.509C507.321,502.509 512,497.831 512,492.06C512,486.289 507.321,481.611 501.551,481.611Z" style="fill:white;fill-rule:nonzero;"/>
                        </g>
                    </g>
                    <g>
                        <g>
                            <path d="M294.107,202.623C287.667,202.623 282.427,207.862 282.427,214.303C282.427,220.743 287.667,225.982 294.107,225.982C300.547,225.982 305.785,220.743 305.786,214.303C305.786,207.862 300.547,202.623 294.107,202.623Z" style="fill:white;fill-rule:nonzero;"/>
                        </g>
                    </g>
                    <g>
                        <g>
                            <path d="M217.893,202.623C211.453,202.623 206.214,207.862 206.214,214.303C206.214,220.743 211.453,225.982 217.893,225.982C224.333,225.982 229.573,220.743 229.573,214.303C229.572,207.862 224.332,202.623 217.893,202.623Z" style="fill:white;fill-rule:nonzero;"/>
                        </g>
                    </g>
                    <g>
                        <g>
                            <path d="M266.255,251.854L245.833,251.854C240.063,251.854 235.384,256.532 235.384,262.303C235.384,273.694 244.652,282.963 256.044,282.963C267.436,282.963 276.703,273.696 276.704,262.303C276.704,256.532 272.025,251.854 266.255,251.854Z" style="fill:white;fill-rule:nonzero;"/>
                        </g>
                    </g>
                    <g>
                        <g>
                            <path d="M448.351,269.525C413.761,269.525 385.618,297.667 385.618,332.259C385.618,363.624 408.756,389.686 438.86,394.274L438.86,452.704C438.86,458.475 443.539,463.153 449.309,463.153C455.079,463.153 459.758,458.475 459.758,452.704L459.758,393.934C488.919,388.552 511.084,362.954 511.084,332.26C511.085,297.667 482.942,269.525 448.351,269.525ZM448.351,374.093C425.284,374.093 406.516,355.327 406.516,332.258C406.516,309.19 425.283,290.422 448.351,290.422C471.419,290.422 490.187,309.189 490.187,332.258C490.187,355.327 471.419,374.093 448.351,374.093Z" style="fill:white;fill-rule:nonzero;"/>
                        </g>
                    </g>
                    <g>
                        <g>
                            <path d="M449.309,299.261C443.539,299.261 438.86,303.939 438.86,309.71L438.86,332.259C438.86,338.03 443.539,342.708 449.309,342.708C455.079,342.708 459.758,338.03 459.758,332.259L459.758,309.71C459.758,303.939 455.079,299.261 449.309,299.261Z" style="fill:white;fill-rule:nonzero;"/>
                        </g>
                    </g>
                    <g>
                        <g>
                            <path d="M449.309,347.179C443.539,347.179 438.86,351.857 438.86,357.628L438.86,357.832C438.86,363.603 443.539,368.281 449.309,368.281C455.079,368.281 459.758,363.603 459.758,357.832L459.758,357.628C459.758,351.857 455.079,347.179 449.309,347.179Z" style="fill:white;fill-rule:nonzero;"/>
                        </g>
                    </g>
                    <g>
                        <g>
                            <path d="M369.59,436.68L330.387,436.68C324.617,436.68 319.938,441.358 319.938,447.129C319.938,452.9 324.617,457.578 330.387,457.578L369.59,457.578C375.36,457.578 380.039,452.9 380.039,447.129C380.039,441.358 375.36,436.68 369.59,436.68Z" style="fill:white;fill-rule:nonzero;"/>
                        </g>
                    </g>
                    <g>
                        <g>
                            <path d="M467.661,481.611L409.639,481.611L409.639,410.96C409.639,390.592 397.347,371.247 379.749,363.913L333.02,344.443L395.368,292.01C397.608,290.126 398.956,287.388 399.083,284.463C399.208,281.538 398.102,278.694 396.032,276.624L363.516,244.108C375.494,238.888 383.896,226.949 383.896,213.07C383.896,198.048 374.06,185.279 360.491,180.865L360.491,170.562C372.6,166.732 382.494,162.827 389.828,159.616C403.887,153.46 449.758,131.39 449.758,105.869C449.758,86.242 425.697,81.963 417.79,80.556C405.091,78.298 387.988,77.23 361.415,77.072L348.126,31.432C345.683,23.041 339.746,16.098 331.837,12.38C323.927,8.665 314.794,8.526 306.78,12L256.045,33.984L205.32,12C197.301,8.526 188.166,8.668 180.255,12.383C172.344,16.101 166.405,23.044 163.962,31.435L150.681,77.073C124.006,77.232 106.871,78.307 94.145,80.589C73.043,84.374 62.344,92.879 62.344,105.87C62.344,131.393 108.215,153.462 122.274,159.617C129.587,162.819 139.445,166.712 151.509,170.531L151.509,180.865C137.94,185.279 128.104,198.047 128.104,213.07C128.104,216.382 128.607,219.575 129.498,222.603L125.496,222.603L125.496,221.566C125.496,215.795 120.817,211.117 115.047,211.117C109.277,211.117 104.598,215.795 104.598,221.566L104.598,222.603L86.27,222.603L86.27,221.566C86.27,215.795 81.591,211.117 75.821,211.117C70.051,211.117 65.372,215.795 65.372,221.566L65.372,222.603L47.042,222.603L47.042,221.643C47.042,215.872 42.363,211.194 36.593,211.194C30.823,211.194 26.144,215.872 26.144,221.643L26.144,222.603L10.514,222.603C4.744,222.603 0.065,227.281 0.065,233.052L0.065,447.295C0.065,453.066 4.744,457.744 10.514,457.744L102.359,457.744L102.359,481.609L44.439,481.609C38.669,481.609 33.99,486.287 33.99,492.058C33.99,497.829 38.669,502.507 44.439,502.507L467.659,502.507C473.429,502.507 478.108,497.829 478.108,492.058C478.108,486.287 473.432,481.611 467.661,481.611ZM184.029,37.277C184.806,34.607 186.622,32.484 189.145,31.299C191.665,30.115 194.46,30.07 197.016,31.178L251.794,54.918C253.106,55.488 254.52,55.781 255.952,55.781L256.141,55.781C257.569,55.781 258.984,55.487 260.296,54.92L315.091,31.177C317.643,30.071 320.434,30.113 322.95,31.297C325.469,32.481 327.284,34.604 328.064,37.277L346.958,102.164C317.473,111.211 286.941,115.792 256.054,115.792C240.508,115.792 224.812,114.602 209.398,112.257C194.466,109.982 179.625,106.595 165.151,102.161L184.029,37.277ZM130.658,140.476C95.322,125.003 83.779,110.268 83.261,106.144C84.058,105.34 87.988,102.334 103.482,100.29C113.471,98.973 126.438,98.251 144.585,98.028L142.25,106.054C140.69,111.414 143.62,117.055 148.902,118.861C167.516,125.224 186.81,129.953 206.25,132.915C222.702,135.419 239.457,136.688 256.052,136.688C292.57,136.688 328.62,130.69 363.203,118.86C368.486,117.053 371.414,111.413 369.854,106.054L367.517,98.027C385.581,98.25 398.504,98.965 408.465,100.268C424.096,102.312 428.044,105.338 428.843,106.142C428.333,110.257 416.795,124.996 381.445,140.475C360.004,149.863 315.204,165.613 256.052,165.613C196.9,165.613 152.099,149.864 130.658,140.476ZM161.959,200.117C167.729,200.117 172.408,195.439 172.408,189.668L172.408,176.4C195.438,182.075 223.753,186.513 256.051,186.513C288.301,186.513 316.581,182.089 339.592,176.426L339.592,189.669C339.592,195.44 344.271,200.118 350.041,200.118C357.185,200.118 362.997,205.931 362.997,213.074C362.997,220.217 357.184,226.03 350.041,226.03C344.271,226.03 339.592,230.708 339.592,236.479L339.592,253.531C338.643,264.581 333.149,274.707 325.171,280.108L269.072,312.275C268.882,312.385 268.695,312.5 268.512,312.621C260.677,317.794 251.327,317.794 243.492,312.621C243.305,312.498 243.115,312.38 242.919,312.269L186.654,280.105C178.67,274.699 173.369,264.812 172.408,253.533L172.408,236.479C172.408,230.708 167.729,226.03 161.959,226.03C154.815,226.03 149.003,220.217 149.003,213.074C149.003,205.929 154.815,200.117 161.959,200.117ZM107.389,388.615L43.736,388.615C37.966,388.615 33.287,393.293 33.287,399.064C33.287,404.835 37.966,409.513 43.736,409.513L102.387,409.513C102.373,409.995 102.36,410.476 102.36,410.96L102.36,436.847L20.964,436.847L20.964,243.503L26.145,243.503L26.145,244.453C26.145,250.224 30.824,254.902 36.594,254.902C42.364,254.902 47.043,250.224 47.043,244.453L47.043,243.503L65.372,243.503L65.372,244.377C65.372,250.148 70.051,254.826 75.821,254.826C81.591,254.826 86.27,250.148 86.27,244.377L86.27,243.503L104.6,243.503L104.6,244.377C104.6,250.148 109.279,254.826 115.049,254.826C120.819,254.826 125.498,250.148 125.498,244.377L125.498,243.503L147.172,243.503C147.688,243.755 148.206,244 148.736,244.226L120.269,272.695L44.389,272.695C38.619,272.695 33.94,277.373 33.94,283.144C33.94,288.915 38.619,293.593 44.389,293.593L118.88,293.593L179.226,344.342L132.252,363.915C121.398,368.437 112.568,377.533 107.389,388.615ZM245.603,481.611L123.259,481.611L123.259,410.96C123.259,399.183 130.581,387.25 140.29,383.204L197.229,359.48L245.603,400.161L245.603,481.611ZM139.168,283.349L154.137,268.38C157.922,280.624 165.386,291.106 175.393,297.713C175.58,297.837 175.77,297.954 175.966,298.065L232.273,330.254C239.608,335.018 247.803,337.399 256.001,337.399C264.2,337.399 272.399,335.016 279.735,330.25L335.877,298.058C336.067,297.948 336.254,297.833 336.437,297.712C346.595,291.004 354.154,280.413 357.935,268.085L373.198,283.348L256.184,381.754L139.168,283.349ZM388.742,481.611L266.5,481.611L266.5,400.384L315.018,359.583L371.712,383.205C381.42,387.25 388.742,399.183 388.742,410.961L388.742,481.611Z" style="fill:white;fill-rule:nonzero;"/>
                        </g>
                    </g>
                </g>
            </g>
        </g>
    </g>
</svg>
